<svg xmlns="http://www.w3.org/2000/svg" viewBox="0 0 232 42"><style>.st0{fill:#231F20;} .st1{fill:#EC2027;} .st2{fill:#1B2B58;} .st3{fill:#D13438;} .st4{fill:#122148;} .st5{fill:#FFFFFF;}</style><path d="M139.8 34.8h2.6c.6.1 1.1.3 1.6.7.3.3.6.6.8 1 .4.9.9 1.8 1.4 2.7.1.2.3.4.5.5.1.1.3.1.4.1v-5h2.2V37h.1c-.5.1-.9.6-1 1.1 0 .3 0 .6.1.8.2.3.5.6.8.6v2.2h-2.7c-.6-.1-1.2-.4-1.6-.8-.3-.3-.5-.6-.7-.9-.4-.9-.9-1.8-1.3-2.7-.1-.2-.3-.4-.5-.6-.1-.1-.3-.1-.4-.1v5h-2.2c-.1-2.1-.1-4.4-.1-6.8M150 34.8H169.1c.1.1.1.2.1.2.9 1.7 1.9 3.3 2.8 5 .9-1.7 1.8-3.5 2.7-5.2 0-.1.1 0 .1 0h2.2c-.1.3-.3.5-.4.7-.6 1.1-1.2 2.3-1.8 3.4-.5 1-1 1.9-1.5 2.9h-2.7c-.2-.3-.3-.5-.4-.8-.9-1.5-1.7-3.1-2.6-4.6h-3v5.4h-2.2v-4.3-1.1h-3.3c.1.4.2.9.2 1.3v.8c0 .6-.1 1.3-.4 1.9-.2.5-.6.9-1.1 1.1-.5.2-1 .3-1.5.3h-6.2v-2.2c.3-.1.6-.3.8-.5.1-.2.2-.5.2-.7 0-.3-.1-.5-.2-.7-.2-.3-.5-.5-.8-.5h.1c-.2-.9-.2-1.6-.2-2.4m2.2 1.7v3.7H155.9c.3 0 .5-.1.7-.2.2-.1.3-.4.3-.6v-.7-1.1c0-.2 0-.4-.2-.6-.1-.1-.2-.2-.4-.3s-.5-.1-.8-.1c-1-.1-2.1-.1-3.3-.1" class="st0"/><path d="M149.3 37.1h.6c.3.1.6.3.8.5s.2.5.2.7c0 .3-.1.5-.2.7-.2.3-.5.5-.8.5h-.6c-.4-.1-.7-.3-.8-.6s-.2-.6-.1-.8c0-.5.4-.9.9-1" class="st1"/><path d="M121.8 40.3l-.7 1.6h-1.2l3.1-7h1.2l3.1 7H126l-.7-1.6h-3.5zm1.7-4.2l-1.3 3.1h2.7l-1.4-3.1zM133.6 41.9l-3.7-5v5h-1.2v-7h1.2l3.7 5v-5h1.2v7zM182.5 41.9l-2.8-7h1.2l2.2 5.7 2.2-5.7h1.3l-2.9 7zM189.2 35.9v1.9h3.4v1.1h-3.4v2h4v1H188v-7h5v1zM200.1 41.9l-3.8-5v5h-1.2v-7h1.2l3.8 5v-5h1.1v7zM206.2 35.9v6H205v-6h-2.2v-1h5.6v1zM215.9 39c0 1.8-1.2 3-3.1 3-1.9 0-3.1-1.1-3.1-3v-4.1h1.2V39c0 1.2.7 1.9 1.9 1.9 1.1 0 1.9-.7 1.9-1.9v-4.1h1.2V39zM221.3 39.8h-2v2.1h-1.2v-7h2.9c1.8 0 2.8.9 2.8 2.4 0 1.1-.5 1.9-1.5 2.3l1.6 2.4h-1.3l-1.3-2.2zm-.3-1.1c1.1 0 1.7-.5 1.7-1.4s-.6-1.4-1.7-1.4h-1.7v2.8h1.7zM227.1 35.9v1.9h3.4v1.1h-3.4v2h3.9v1h-5.1v-7h5v1z"/><g><path d="M114.8 25.9c-1.6 2.7-4.4 3.8-7.7 3.8-3.8 0-6.3-2.4-6.3-5.6s2.7-5.2 7.2-5.2h6.8V17c0-3.2-1.9-5.2-5.8-5.2-2.4 0-4.4 1-6.5 2.5l-.7-1.2c2.3-1.7 4.5-2.7 7.4-2.7 4.5 0 7 2.5 7.1 6.5l.1 12.8h-1.5l-.1-3.8zm0-2.4v-3.1h-6.7c-3.8 0-5.8 1.3-5.8 3.8s2 4.3 5.1 4.3c3.5-.1 6.2-1.7 7.4-5M137.1 18v11.7h-1.6V18.3c0-3.9-2.3-6.3-6.3-6.3-4.4.1-7.2 2.9-7.5 7.3v10.4h-1.5V10.5h1.6v4.9c1.3-3.2 4-4.9 7.9-4.9 4.6 0 7.4 2.8 7.4 7.5M158.1 29.7h-1.5v-5c-1.4 3.2-4.4 5.1-8.2 5.1-5.5 0-9.4-4.1-9.4-9.7 0-5.7 3.9-9.7 9.3-9.7 3.8 0 6.8 2 8.2 5.1V2.4h1.5l.1 27.3zm-1.6-9.6c0-4.8-3.4-8.3-8-8.3s-8 3.5-8 8.3 3.4 8.3 8 8.3c4.7 0 8-3.5 8-8.3" class="st2"/><path d="M183.9 19.9c0 6.1-3.8 10.1-9.6 10.1-2.7 0-4.9-1-6.4-2.9v2.7h-6.7V2.3h6.7v10.1c1.5-1.8 3.6-2.8 6.2-2.8 5.9 0 9.8 4.1 9.8 10.3m-6.7-.2c0-3-1.9-5.2-4.7-5.2-2.7 0-4.6 2.1-4.6 5.2s1.9 5.2 4.6 5.2c2.8 0 4.7-2.1 4.7-5.2m13.2-15.6c0 2-1.5 3.4-3.5 3.4s-3.5-1.4-3.5-3.4 1.5-3.4 3.5-3.4 3.5 1.4 3.5 3.4m-6.8 5.7h6.6v19.9h-6.6V9.8zm16.1 14.5v5.4H193V2.3h6.7v14.5l6.9-7h7.5l-7.6 7.7 7.9 12.3h-7.9l-4.5-7.7-2.3 2.2zm32.3-2.8h-14.6c.7 2.4 2.4 3.7 4.9 3.7 1.8 0 3.6-.7 5-2l3.5 3.3c-2.1 2.2-5.2 3.5-9 3.5-6.8 0-11-4.1-11-10.1 0-6.2 4.4-10.2 10.8-10.2 7.2-.1 10.8 4.5 10.4 11.8m-6.4-3.4c0-2.4-1.6-4-4-4-2.3 0-3.9 1.6-4.3 4h8.3z" class="st3"/><path d="M66.2 14.1l-4.8 2.8c-1-1.3-2.4-2.1-4.2-2.1-2.6 0-4.4 2-4.4 5 0 3.1 1.8 5.1 4.4 5.1 1.9 0 3.3-.7 4.2-2.3l4.9 2.7c-1.7 2.9-5 4.6-9.4 4.6-6.4.1-10.7-4-10.7-10.1S50.6 9.6 57 9.6c4.1 0 7.4 1.6 9.2 4.5m17.9 2.6v13h-6.5v-2.3c-1.3 1.7-3.5 2.6-6.4 2.6-4.4 0-7.1-2.6-7.1-6.2 0-3.8 2.8-6 8-6h5.5v-.3c0-2-1.3-3.1-4-3.1-1.7 0-4 .6-6.2 1.7l-1.9-4.2c3.2-1.4 6.2-2.3 9.6-2.3 5.6-.1 9 2.6 9 7.1M77.5 23v-1.8h-4.2c-2 0-3 .7-3 2.1s1.1 2.4 2.9 2.4c2.1 0 3.9-1.1 4.3-2.7m14.4-9.8c1.4-2.3 3.8-3.6 6.7-3.7v5.8c-3.9-.3-6.4 1.4-6.7 4.2v10.2h-6.7V9.8h6.7v3.4z" class="st4"/></g><g><path d="M19.4-.1C30-.1 38.7 8.5 38.7 19.2s-8.6 19.3-19.3 19.3C8.8 38.5.2 29.8.2 19.2S8.8-.1 19.4-.1" class="st4"/><path d="M19.5 36c-9.3 0-16.9-7.5-16.9-16.9S10.2 2.3 19.5 2.3s16.9 7.5 16.9 16.9S28.8 36 19.5 36m0-1.6c8.4 0 15.2-6.8 15.2-15.2S27.9 4 19.5 4C11.2 4 4.4 10.8 4.4 19.2s6.8 15.2 15.1 15.2" class="st3"/><path d="M28.7 16.6c-1.2-1.1-2.3-1.7-3.9-1.7-.6 0-1.3.1-1.3.2v-6c-1 0-2 .3-2.8.9-.8.6-1.2 1.2-1.2 1.7V18l-3.9 3.7c-.4.4-.9.6-1.5.6-.5 0-1-.2-1.4-.6s-.6-.8-.6-1.3.2-1 .6-1.4c.4-.4.8-.6 1.3-.6.6 0 1 .2 1.4.6l.3.3 2.7-2.7-.2-.4c-1.1-1.1-2.5-1.7-4.1-1.7s-3 .6-4.1 1.7-1.7 2.5-1.7 4.1.6 2.9 1.7 4.1c1.1 1.1 2.5 1.7 4.1 1.7s2.9-.6 4.1-1.7l1-1 4.1-4.1c.4-.4.8-.6 1.4-.6.5 0 1 .2 1.3.6.4.4.6.8.6 1.3s-.2 1-.6 1.4-.8.6-1.3.6c-.6 0-1-.2-1.4-.6l-.3-.3-2.7 2.7.3.3c1.1 1.1 2.5 1.7 4.1 1.7s3-.6 4.1-1.7 1.7-2.5 1.7-4.1c0-1.5-.6-2.9-1.8-4" class="st5"/></g></svg>