<svg xmlns="http://www.w3.org/2000/svg" id="Capa_1" viewBox="0 0 160 100"><style>.st0{fill:#F3F3F3;} .st1{fill:#FFFFFF;} .st2{fill:none;stroke:#F3F3F3;stroke-width:1.8;stroke-miterlimit:10;} .st3{fill:none;stroke:#BCBCBC;stroke-width:1.8;stroke-linecap:round;stroke-linejoin:round;stroke-miterlimit:10;}</style><path d="M0 0h160v100H0z" class="st0"/><path d="M80 30.7c10.6 0 19.3 8.6 19.3 19.3S90.7 69.3 80 69.3c-10.6 0-19.2-8.7-19.2-19.3S69.4 30.7 80 30.7" class="st1"/><circle cx="80" cy="50" r="16" class="st2"/><path d="M68.6 38.8c2.9-3 7-4.8 11.4-4.8" class="st3"><animateTransform attributeType="xml" attributeName="transform" type="rotate" from="0 80 50" to="360 80 50" dur="2.5s" repeatCount="indefinite"/></path><path d="M89.2 47.4c-1.2-1.1-2.3-1.7-3.9-1.7-.6 0-1.3.1-1.3.2v-6c-1 0-2 .3-2.8.9-.8.6-1.2 1.2-1.2 1.7v6.3l-3.9 3.7c-.4.4-.9.6-1.5.6-.5 0-1-.2-1.4-.6-.4-.4-.6-.8-.6-1.3s.2-1 .6-1.4.8-.6 1.3-.6c.6 0 1 .2 1.4.6l.3.3 2.7-2.7-.1-.4c-1.1-1.1-2.5-1.7-4.1-1.7s-3 .6-4.1 1.7c-1.1 1.1-1.7 2.5-1.7 4.1s.6 2.9 1.7 4.1c1.1 1.1 2.5 1.7 4.1 1.7s2.9-.6 4.1-1.7l1-1 4.1-4.1c.4-.4.8-.6 1.4-.6.5 0 1 .2 1.3.6.4.4.6.8.6 1.3s-.2 1-.6 1.4-.8.6-1.3.6c-.6 0-1-.2-1.4-.6l-.3-.3-2.7 2.7.3.3c1.1 1.1 2.5 1.7 4.1 1.7s3-.6 4.1-1.7c1.1-1.1 1.7-2.5 1.7-4.1 0-1.5-.6-2.9-1.9-4" class="st0"/></svg>